<svg id="Layer_1" data-name="Layer 1" xmlns="http://www.w3.org/2000/svg" xmlns:xlink="http://www.w3.org/1999/xlink" viewBox="0 0 300 300"><defs><style>.cls-1,.cls-2{fill:none;}.cls-1{clip-rule:evenodd;}.cls-3{clip-path:url(#clip-path);}.cls-4{clip-path:url(#clip-path-2);}.cls-5{fill:#fff;}.cls-6{clip-path:url(#clip-path-3);}.cls-7{clip-path:url(#clip-path-5);}.cls-8{clip-path:url(#clip-path-7);}.cls-9{clip-path:url(#clip-path-9);}.cls-10{clip-path:url(#clip-path-11);}.cls-11{isolation:isolate;}.cls-12{clip-path:url(#clip-path-13);}.cls-13{clip-path:url(#clip-path-14);}.cls-14{clip-path:url(#clip-path-15);}.cls-15{clip-path:url(#clip-path-16);}.cls-16{clip-path:url(#clip-path-18);}.cls-17{clip-path:url(#clip-path-20);}.cls-18{clip-path:url(#clip-path-22);}.cls-19{clip-path:url(#clip-path-24);}.cls-20{clip-path:url(#clip-path-26);}.cls-21{clip-path:url(#clip-path-28);}.cls-22{clip-path:url(#clip-path-30);}</style><clipPath id="clip-path"><path class="cls-1" d="M186.27,140.12a5,5,0,0,1-4.16-1.78c-.17-.81-.44-12.62-.54-24.43-.11-12.24,0-24.49.6-24.53,3.45-6.47,14.45-19.53,14.45-19.53a58.72,58.72,0,0,0-31.76,17.52c-3.31-2.6-10.06-2.17-10.06-2.17,3.16,1.74,6.32,6.81,6.32,11v41.27s-6.9,6.08-12.22,6.08a7.49,7.49,0,0,1-6.14-3.13,8.6,8.6,0,0,1-1-1.8v-51a4.39,4.39,0,0,1-2.53.86,3.37,3.37,0,0,1-3.09-2.24,13.8,13.8,0,0,1-1-5.86c0-9.41,10.64-15.64,10.64-15.64-13.51,3.62-26,10.57-42.69,29.69s-13.51,34.9-13.51,34.9,4.6-10.86,15.67-22.3c5.24-5.42,9.16-7.23,11.83-7.24a4.17,4.17,0,0,1,4.41,4.2v38.8c0,3.83-2.47,4.67-4.74,4.63a12.75,12.75,0,0,1-3.74-.72c11.35,16.51,38.52,18.83,38.52,18.83l11.93-12.74.28.24,10.93,9.31c20-11.87,29.61-33.88,29.61-33.88-8.91,9.44-14.6,11.64-18,11.62"/></clipPath><clipPath id="clip-path-2"><rect class="cls-2" x="-12.15" y="-64.08" width="703.97" height="469.32"/></clipPath><clipPath id="clip-path-3"><path class="cls-1" d="M149.89,35.34A78.43,78.43,0,0,1,206,58.77a80.45,80.45,0,0,1,0,113.1,78.84,78.84,0,0,1-112.15,0,80.45,80.45,0,0,1,0-113.1,78.44,78.44,0,0,1,56.08-23.43m0-3.68c-45.82,0-83,37.46-83,83.66s37.14,83.65,83,83.65,83-37.45,83-83.65-37.14-83.66-83-83.66"/></clipPath><clipPath id="clip-path-5"><polygon class="cls-1" points="108.02 268.01 90.27 268.01 90.27 251.73 107.74 251.73 107.74 255.33 95.02 255.33 95.02 258.1 107.07 258.1 107.07 261.5 95.02 261.5 95.02 264.31 108.02 264.31 108.02 268.01"/></clipPath><clipPath id="clip-path-7"><polygon class="cls-1" points="132.12 268.01 124.94 268.01 115.49 255.84 115.39 255.84 115.39 268.01 110.68 268.01 110.68 251.73 117.98 251.73 127.32 263.92 127.41 263.92 127.41 251.73 132.12 251.73 132.12 268.01"/></clipPath><clipPath id="clip-path-9"><path class="cls-1" d="M146,268.2c-1.51,0-2.81,0-3.9-.11a14.93,14.93,0,0,1-2.79-.43,5,5,0,0,1-1.86-.87,3.74,3.74,0,0,1-1.12-1.44,7.42,7.42,0,0,1-.53-2.17,28.73,28.73,0,0,1-.14-3v-.47a29.14,29.14,0,0,1,.14-3,7.38,7.38,0,0,1,.55-2.18,3.74,3.74,0,0,1,1.12-1.44,5.35,5.35,0,0,1,1.86-.86,15.07,15.07,0,0,1,2.79-.41c1.1-.07,2.39-.11,3.88-.11h.73c1.25,0,2.35,0,3.29.09a16.54,16.54,0,0,1,2.43.29,5.69,5.69,0,0,1,1.67.59,3,3,0,0,1,1.05.94,3.72,3.72,0,0,1,.53,1.38,10.14,10.14,0,0,1,.15,1.86v.63h-4.61v-.2a2.14,2.14,0,0,0-.18-.93,1.25,1.25,0,0,0-.67-.6,4.46,4.46,0,0,0-1.42-.32c-.61-.06-1.41-.1-2.4-.1h-.4c-.9,0-1.67,0-2.31,0a9,9,0,0,0-1.6.2,2.74,2.74,0,0,0-1,.45,1.7,1.7,0,0,0-.56.79,4.78,4.78,0,0,0-.24,1.23c0,.49-.05,1.08-.05,1.77v.29c0,.67,0,1.25.05,1.73a4.7,4.7,0,0,0,.24,1.21,1.68,1.68,0,0,0,.56.78,2.44,2.44,0,0,0,1,.45,9,9,0,0,0,1.6.2c.64,0,1.41.05,2.31.05h.4c.73,0,1.37,0,1.9,0a13,13,0,0,0,1.34-.13,3.56,3.56,0,0,0,.87-.24,1.4,1.4,0,0,0,.51-.4,1.37,1.37,0,0,0,.23-.55,4.22,4.22,0,0,0,.06-.75v-.45h-6.23v-3.15H156v3.62a12.49,12.49,0,0,1-.15,2.06,4.33,4.33,0,0,1-.55,1.53,3.22,3.22,0,0,1-1.07,1.07,5.85,5.85,0,0,1-1.7.67,15.23,15.23,0,0,1-2.48.35c-1,.07-2.08.11-3.35.11Z"/></clipPath><clipPath id="clip-path-11"><rect class="cls-2" x="36.43" y="214.26" width="227.14" height="53.94"/></clipPath><clipPath id="clip-path-13"><rect class="cls-2" x="167.6" y="251.77" width="42.71" height="16.43"/></clipPath><clipPath id="clip-path-14"><polygon class="cls-1" points="188.87 268.01 181.77 268.01 172.41 255.93 172.32 255.93 172.32 268.01 167.66 268.01 167.66 251.86 174.88 251.86 184.12 263.95 184.21 263.95 184.21 251.86 188.87 251.86 188.87 268.01"/></clipPath><clipPath id="clip-path-15"><rect class="cls-2" x="36.43" y="214.23" width="227.15" height="54.21"/></clipPath><clipPath id="clip-path-16"><polygon class="cls-1" points="210.22 268.01 192.66 268.01 192.66 251.86 209.94 251.86 209.94 255.43 197.36 255.43 197.36 258.18 209.28 258.18 209.28 261.55 197.36 261.55 197.36 264.34 210.22 264.34 210.22 268.01"/></clipPath><clipPath id="clip-path-18"><path class="cls-1" d="M53.46,243.05c-2.3,0-4.33-.06-6.07-.18a27.91,27.91,0,0,1-4.5-.64A10.71,10.71,0,0,1,39.76,241a6.2,6.2,0,0,1-2-1.92,7.76,7.76,0,0,1-1-2.75,20.28,20.28,0,0,1-.3-3.72V214.26H44.8v15.65c0,1,0,1.8.11,2.49a5.76,5.76,0,0,0,.41,1.78,2.92,2.92,0,0,0,.9,1.19,4.34,4.34,0,0,0,1.56.7,12,12,0,0,0,2.39.34c.94.05,2.07.08,3.37.08h.71c1.31,0,2.44,0,3.38-.09a12.78,12.78,0,0,0,2.39-.34,4.26,4.26,0,0,0,1.56-.7,3,3,0,0,0,.9-1.19,5.91,5.91,0,0,0,.41-1.78c.07-.7.1-1.53.1-2.48V214.26h8.38v18.37a22.53,22.53,0,0,1-.28,3.71,7.55,7.55,0,0,1-1,2.76,6,6,0,0,1-2,1.92A10.53,10.53,0,0,1,65,242.23a28.16,28.16,0,0,1-4.53.64q-2.62.18-6.13.18Z"/></clipPath><clipPath id="clip-path-20"><polygon class="cls-1" points="114.46 242.72 101.94 242.72 85.45 221.43 85.29 221.43 85.29 242.72 77.07 242.72 77.07 214.25 89.8 214.25 106.09 235.57 106.25 235.57 106.25 214.25 114.46 214.25 114.46 242.72"/></clipPath><clipPath id="clip-path-22"><path class="cls-1" d="M153.89,242.72h-8.27v-2.3a18.93,18.93,0,0,0-.1-2.15,4.26,4.26,0,0,0-.43-1.52,2.51,2.51,0,0,0-.91-1,4.5,4.5,0,0,0-1.54-.59,16.78,16.78,0,0,0-2.37-.27c-.94,0-2.06-.07-3.35-.07h-8.38v7.9h-8.29V214.26h22.09a32.15,32.15,0,0,1,5.73.42,8.14,8.14,0,0,1,3.54,1.45,5.15,5.15,0,0,1,1.79,2.67,14.71,14.71,0,0,1,.49,4.12v1a14.21,14.21,0,0,1-.26,2.94,6.26,6.26,0,0,1-.85,2.16,4.84,4.84,0,0,1-1.52,1.5,7,7,0,0,1-2.28.9v.17a12.16,12.16,0,0,1,2.46.62,3.31,3.31,0,0,1,1.5,1.12,4.42,4.42,0,0,1,.75,2,18.62,18.62,0,0,1,.2,3.08ZM139,228.62c1.45,0,2.6,0,3.45-.13a4.68,4.68,0,0,0,2-.55,2,2,0,0,0,.87-1.17,8,8,0,0,0,.2-2v-.49a7.94,7.94,0,0,0-.2-1.95,1.88,1.88,0,0,0-.88-1.15,5.14,5.14,0,0,0-2-.53c-.85-.09-2-.13-3.43-.13H128.54v8.07Z"/></clipPath><clipPath id="clip-path-24"><polygon class="cls-1" points="190.31 242.72 159.36 242.72 159.36 214.25 189.83 214.25 189.83 220.55 167.65 220.55 167.65 225.39 188.65 225.39 188.65 231.34 167.65 231.34 167.65 236.25 190.31 236.25 190.31 242.72"/></clipPath><clipPath id="clip-path-26"><path class="cls-1" d="M233.08,242.72h-9l-2.61-5.1H203.67l-2.57,5.1h-9l15.3-28.46h10.28Zm-14.67-11.05-5.8-11.43h-.2l-5.77,11.43Z"/></clipPath><clipPath id="clip-path-28"><polygon class="cls-1" points="263.57 242.72 236.14 242.72 236.14 214.25 244.51 214.25 244.51 236.1 263.57 236.1 263.57 242.72"/></clipPath><clipPath id="clip-path-30"><rect class="cls-2" x="159.32" y="251.86" width="4.78" height="16.15"/></clipPath></defs><g class="cls-3"><g class="cls-4"><rect class="cls-5" x="88.13" y="63.61" width="117.29" height="103.13"/></g></g><g class="cls-6"><g class="cls-4"><rect class="cls-5" x="65.76" y="30.49" width="168.25" height="169.66"/></g></g><g class="cls-7"><g class="cls-4"><rect class="cls-5" x="89.09" y="250.56" width="20.1" height="18.63"/></g></g><g class="cls-8"><g class="cls-4"><rect class="cls-5" x="109.51" y="250.56" width="23.79" height="18.63"/></g></g><g class="cls-9"><g class="cls-4"><rect class="cls-5" x="134.47" y="250.5" width="22.72" height="18.87"/></g></g><g class="cls-10"><g class="cls-4"><g class="cls-11"><g class="cls-12"><g class="cls-13"><g class="cls-14"><rect class="cls-5" x="166.49" y="250.69" width="23.56" height="18.5"/></g></g><g class="cls-15"><g class="cls-14"><rect class="cls-5" x="191.48" y="250.69" width="19.91" height="18.5"/></g></g></g></g></g></g><g class="cls-16"><g class="cls-4"><rect class="cls-5" x="35.25" y="213.08" width="37.29" height="31.14"/></g></g><g class="cls-17"><g class="cls-4"><rect class="cls-5" x="75.9" y="213.08" width="39.74" height="30.82"/></g></g><g class="cls-18"><g class="cls-4"><rect class="cls-5" x="119.08" y="213.08" width="35.99" height="30.82"/></g></g><g class="cls-19"><g class="cls-4"><rect class="cls-5" x="158.18" y="213.08" width="33.3" height="30.82"/></g></g><g class="cls-20"><g class="cls-4"><rect class="cls-5" x="190.96" y="213.08" width="43.3" height="30.82"/></g></g><g class="cls-21"><g class="cls-4"><rect class="cls-5" x="234.96" y="213.08" width="29.78" height="30.82"/></g></g><g class="cls-22"><g class="cls-4"><rect class="cls-5" x="158.14" y="250.69" width="7.12" height="18.5"/></g></g></svg>